<?xml version="1.0" encoding="iso-8859-1"?>
<!-- Generator: Adobe Illustrator 19.0.0, SVG Export Plug-In . SVG Version: 6.00 Build 0)  -->
<svg version="1.1" id="Layer_1" xmlns="http://www.w3.org/2000/svg" xmlns:xlink="http://www.w3.org/1999/xlink" x="0px" y="0px"
	 viewBox="0 0 315.859 315.859" style="enable-background:new 0 0 315.859 315.859;" xml:space="preserve">
<g>
	<g>
		<path style="fill:#E69629;" d="M243.786,70l-35-55l-35,55l-35-35v90.001c0,38.66,31.338,70,70,70c38.658,0.002,70-31.34,70-70V35
			L243.786,70z"/>
		<path style="fill:#DB380E;" d="M284.527,21.143c-5.603-2.321-12.057-1.039-16.347,3.251l-21.777,21.778L221.442,6.947
			C218.688,2.62,213.915,0,208.786,0s-9.901,2.62-12.655,6.947L171.17,46.172l-21.777-21.778c-4.29-4.29-10.743-5.572-16.347-3.251
			c-5.605,2.321-9.26,7.791-9.26,13.857v90.001c0,46.869,38.131,85,84.999,85c0.001,0,0.001,0,0.001,0c0.002,0,0.002,0,0.004,0
			c22.7,0,44.047-8.843,60.1-24.896c16.055-16.055,24.897-37.4,24.897-60.104V35C293.786,28.934,290.132,23.464,284.527,21.143z
			 M263.786,125.001c0,14.69-5.722,28.503-16.109,38.891c-10.388,10.389-24.198,16.109-38.887,16.109c-0.001,0-0.002,0-0.003,0
			h-0.001c-30.327,0-55-24.674-55-55V71.214l9.394,9.393c3.217,3.218,7.714,4.8,12.243,4.305c4.523-0.496,8.575-3.02,11.019-6.857
			l22.345-35.114l22.345,35.114c2.443,3.838,6.496,6.361,11.019,6.857c4.525,0.496,9.026-1.087,12.243-4.305l9.394-9.393v53.787
			H263.786z"/>
	</g>
	<g>
		<path style="fill:#EFC27B;" d="M37.071,315.859c-3.839,0-7.678-1.464-10.606-4.394c-5.858-5.857-5.858-15.355,0-21.213
			L195.25,121.465c5.857-5.857,15.355-5.857,21.213,0c5.858,5.858,5.858,15.356,0,21.213L47.678,311.466
			C44.749,314.395,40.91,315.859,37.071,315.859z"/>
	</g>
	<g>
		<path style="fill:#B8002B;" d="M205.859,157.07c-13.811,0-25-11.19-25-24.997c0-13.809,11.189-25,25-25
			c13.807-0.003,25,11.191,25,25C230.859,145.88,219.665,157.07,205.859,157.07z"/>
	</g>
</g>
<g>
</g>
<g>
</g>
<g>
</g>
<g>
</g>
<g>
</g>
<g>
</g>
<g>
</g>
<g>
</g>
<g>
</g>
<g>
</g>
<g>
</g>
<g>
</g>
<g>
</g>
<g>
</g>
<g>
</g>
</svg>
